<svg width="497" height="463" viewBox="0 0 497 463" fill="none" xmlns="http://www.w3.org/2000/svg">
<g id="PolandMap">
<path id="Podkarpackie" d="M426.611 454.213C422.736 452.873 418.412 451.447 417.003 451.045C415.594 450.643 413 449.384 411.239 448.247C409.478 447.111 405.903 445.527 403.294 444.729C400.573 443.896 398.208 442.253 397.744 440.873C396.41 436.907 388.377 430.125 385.012 430.125C383.316 430.125 381.542 429.535 381.069 428.813C380.576 428.06 377.407 427.659 373.628 427.873C370.008 428.078 366.148 427.717 365.051 427.07C362.799 425.742 358.266 414.574 356.101 405.021C355.183 400.974 353.767 398.21 352.206 397.421C349.277 395.941 348.995 393.173 351.675 392.202C352.732 391.819 353.596 390.739 353.596 389.802C353.596 388.865 352.732 387.421 351.675 386.593C350.392 385.588 349.753 382.872 349.753 378.423C349.753 374.758 349.102 369.707 348.306 367.199C346.978 363.014 347.165 362.209 350.571 357.421C352.612 354.552 357.617 349.997 361.692 347.299C365.768 344.601 370.369 340.455 371.917 338.085C381.099 324.027 382.397 322.582 385.865 322.543C387.761 322.522 389.668 321.961 390.103 321.296C390.539 320.631 392.014 320.087 393.381 320.087C395.485 320.087 395.868 320.95 395.868 325.697C395.868 332.149 398.107 334.498 404.316 334.559C407.741 334.592 412.52 337.594 412.52 339.712C412.52 340.093 410.503 341.528 408.037 342.901C404.338 344.961 403.553 346.104 403.553 349.43C403.553 354.751 405.512 356.363 411.979 356.363C414.923 356.363 419.4 357.179 421.93 358.177C424.459 359.174 429.869 359.991 433.951 359.991C440.324 359.991 441.553 359.619 442.639 357.369C445.42 351.602 451.168 351.456 457.757 356.984L461.363 360.01L455.642 367.113C452.495 371.019 449.201 375.504 448.321 377.079C447.442 378.654 446.315 380.215 445.818 380.547C444.456 381.458 434.296 397.561 434.296 398.809C434.296 399.406 433.814 399.895 433.224 399.895C432.635 399.895 430.205 403.406 427.826 407.697L423.499 415.5L425.797 421.532C427.521 426.059 427.876 429.217 427.218 434.187C426.204 441.851 428.831 447.617 433.884 448.814C436.163 449.354 436.858 450.36 436.858 453.123C436.858 457.376 436.018 457.466 426.611 454.213Z" fill="#94ADD6"/>
<path id="Malopolskie" d="M290.121 445.773C287.81 443.363 286.732 443.303 281.222 445.281C279.116 446.037 278.945 445.911 280.262 444.572C281.142 443.676 281.863 440.331 281.863 437.139C281.863 431.34 281.859 431.334 277.493 431.334C272.17 431.334 266.491 425.736 266.491 420.488C266.491 418.576 265.649 416.777 264.57 416.387C263.513 416.004 262.649 414.666 262.649 413.414C262.649 407.824 259.891 403.711 254.874 401.816C250.241 400.066 249.839 399.545 249.839 395.278C249.839 391.916 248.973 389.874 246.686 387.846L243.533 385.05L246.366 381.579C247.924 379.669 251.36 375.891 254.002 373.183C259.068 367.989 260.104 364.347 256.85 363.169C253.33 361.893 264.035 353.945 269.273 353.945C274.719 353.945 280.361 351.578 281.275 348.91C281.795 347.395 283.871 346.799 289.699 346.492C300.115 345.943 301.077 346.634 301.077 354.652C301.077 360.905 303.296 366.356 306.812 368.739C309.015 370.232 317.775 369.764 321.375 367.961C324.773 366.259 341.131 361.2 343.235 361.2C344.774 361.2 346.169 368.716 346.405 378.275C346.521 382.964 347.32 387.097 348.335 388.251C349.471 389.543 349.572 390.221 348.629 390.221C346.052 390.221 346.937 398.472 349.662 399.848C351.293 400.673 352.643 403.422 353.638 407.944C354.466 411.711 356.251 417.231 357.605 420.211C358.958 423.192 359.756 425.923 359.377 426.28C358.999 426.637 354.949 426.832 350.378 426.713C342.449 426.507 342.068 426.627 342.068 429.333C342.068 435.509 333.554 438.466 330.628 433.305C329.13 430.663 328.173 430.428 318.376 430.302C308.396 430.174 307.621 430.349 305.664 433.168C304.518 434.82 302.567 436.171 301.329 436.171C299.919 436.171 297.852 438.431 295.796 442.22C292.521 448.255 292.507 448.263 290.121 445.773Z" fill="#94ADD6"/>
<path id="Slaskie" d="M239.591 430.227C239.591 429.618 237.314 427.082 234.529 424.592C230.315 420.822 229.403 419.155 229.085 414.638C228.848 411.271 227.974 408.895 226.782 408.376C216.861 404.062 217.175 404.421 217.175 397.413C217.175 390.988 217.08 390.816 213.332 390.43C211.218 390.213 208.941 389.533 208.272 388.919C207.603 388.305 205.702 387.803 204.048 387.803C200.423 387.803 189.505 377.435 190.515 374.951C190.886 374.039 192.516 373.292 194.136 373.292C195.757 373.292 200.066 371.831 203.711 370.046C209.632 367.146 210.256 366.47 209.568 363.698C207.376 354.867 207.33 352.008 209.356 350.421C210.486 349.536 211.41 348.076 211.41 347.177C211.41 346.278 213.14 344.698 215.253 343.666C217.367 342.634 219.096 341.46 219.096 341.057C219.096 339.81 213.505 331.599 212.347 331.146C211.746 330.911 212.178 329.754 213.308 328.576C214.438 327.397 215.708 324.325 216.13 321.748C216.552 319.172 218.034 316.032 219.424 314.772C221.428 312.954 221.819 311.387 221.316 307.18C220.587 301.067 222.305 299.53 229.871 299.53C233.308 299.53 234.922 300.269 236.525 302.579C238.372 305.24 239.478 305.601 245.237 305.424C253.034 305.183 257.143 307.229 258.228 311.89C258.856 314.593 259.714 315.25 262.613 315.25C264.635 315.25 266.541 316.046 266.955 317.064C267.36 318.061 268.52 318.877 269.532 318.877C270.931 318.877 271.211 320.008 270.7 323.602C270.102 327.814 270.496 328.722 274.33 331.955C278.457 335.436 278.541 335.677 276.404 337.906C273.668 340.76 273.525 344.11 276.099 345.043C281.522 347.007 273.68 352.061 267.029 350.888C263.863 350.33 262.355 351.087 257.205 355.819C250.718 361.778 249.987 363.284 253.041 364.39C255.882 365.419 255.424 366.867 250.8 371.478C240.171 382.077 238.584 386.331 244.009 389.687C246.451 391.197 247.231 392.854 247.531 397.171C247.889 402.308 248.245 402.818 252.39 404.13C255.743 405.191 257.304 406.642 258.63 409.93C260.871 415.488 260.009 417.531 254.347 420.079C251.34 421.433 249.082 423.677 247.656 426.728C246.059 430.146 244.74 431.334 242.547 431.334C240.922 431.334 239.591 430.836 239.591 430.227Z" fill="#94ADD6"/>
<path id="Opolskie" d="M178.329 382.585C176.797 381.046 175.544 379.161 175.544 378.396C175.544 377.631 174.391 376.422 172.982 375.71C171.573 374.999 170.42 373.84 170.42 373.136C170.42 372.432 171.573 371.572 172.982 371.224C174.885 370.754 175.544 369.575 175.544 366.637V362.682L166.712 362.211C158.398 361.767 157.582 361.457 152.763 356.909C147.554 351.991 144.543 350.168 137.835 347.867L134.072 346.576L138.156 344.232C140.496 342.889 142.239 340.884 142.239 339.536C142.239 338.085 143.258 337.036 144.898 336.797C147.37 336.438 150.917 329.619 153.309 320.627C153.673 319.262 156.518 315.525 159.633 312.322C162.748 309.12 165.296 305.495 165.296 304.266C165.296 303.038 166.449 301.451 167.858 300.739C170.586 299.361 171.39 295.902 168.982 295.902C167.989 295.902 168.037 295.342 169.139 294.088C170.016 293.091 172.392 292.275 174.42 292.275C177.252 292.275 178.106 292.835 178.106 294.693C178.106 296.781 178.96 297.111 184.354 297.111C188.345 297.111 191.178 296.456 192.196 295.298C193.984 293.264 201.862 292.826 203.084 294.693C203.52 295.358 205.77 295.902 208.085 295.902C212.824 295.902 216.534 298.966 216.534 302.879C216.534 304.284 217.111 305.77 217.815 306.181C219.811 307.345 219.329 310.107 216.716 312.482C215.407 313.672 213.99 316.753 213.568 319.33C213.146 321.906 211.912 324.942 210.825 326.075C208.776 328.212 208.089 333.388 209.853 333.388C210.406 333.388 211.83 334.94 213.017 336.838C215.129 340.213 215.107 340.318 212.012 341.649C210.272 342.397 208.849 343.771 208.849 344.701C208.849 345.632 207.911 347.127 206.766 348.025C205.071 349.353 204.818 351.182 205.41 357.847C205.969 364.133 205.749 366.037 204.463 366.037C203.543 366.037 201.324 367.125 199.532 368.455C197.741 369.785 194.532 370.874 192.401 370.874C188.274 370.874 186.277 373.749 187.572 377.827C188.251 379.962 184.458 385.384 182.287 385.384C181.642 385.384 179.861 384.125 178.329 382.585Z" fill="#94ADD6"/>
<path id="DolnoSlaskie" d="M116.666 371.524C115.231 370.083 114.058 367.644 114.058 366.105C114.058 363.594 109.845 357.989 102.549 350.794C98.9358 347.231 99.3302 344.813 103.81 343.062C107.137 341.761 107.653 340.935 107.653 336.916C107.653 333.697 106.794 331.517 104.85 329.807C101.848 327.167 98.0568 326.578 96.7652 328.551C94.4583 332.075 80.7533 327.347 80.7533 323.027C80.7533 321.876 79.3424 321.296 76.5414 321.296C67.0983 321.296 55.1343 312.024 55.1343 304.706C55.1343 302.389 54.5311 301.835 52.2521 302.059C50.667 302.216 47.74 301.604 45.7479 300.7C40.8494 298.477 37.9553 300.324 37.4439 306.001C37.1043 309.769 36.5904 310.413 33.9212 310.413C30.1379 310.413 30.0026 309.273 33.3142 305.299C34.6991 303.637 36.781 299.618 37.9406 296.369C39.1002 293.119 41.1374 288.318 42.4678 285.699C45.2609 280.201 45.4961 277.614 43.3843 275.62C42.245 274.545 42.2384 273.463 43.3568 271.146C44.8544 268.043 47.9294 267.099 49.37 269.299C51.7888 272.994 61.539 268.857 61.539 264.136C61.539 260.778 64.0482 260.547 65.3526 263.785C66.0384 265.488 67.3342 266.874 68.2323 266.865C72.9475 266.817 75.6206 265.129 76.9348 261.37C77.713 259.144 79.4663 256.988 80.8311 256.579C82.5203 256.073 83.5732 254.297 84.1292 251.014C84.7025 247.63 85.4666 246.381 86.6925 246.825C87.6531 247.173 88.439 246.931 88.439 246.286C88.439 245.642 88.5165 244.707 88.6112 244.208C88.927 242.545 93.074 240.44 96.7947 240.055C100.198 239.702 100.556 240.062 101.591 244.885C103.032 251.594 106.011 251.318 109.663 244.138L112.313 238.928L117.669 244.413C120.615 247.43 123.025 250.993 123.025 252.331C123.025 253.932 125.38 256.24 129.912 259.081C139.142 264.866 148.856 266.01 155.819 262.132L160.585 259.478L163.261 262.112C165.148 263.969 165.465 264.912 164.335 265.31C163.455 265.62 162.734 267.124 162.734 268.652C162.734 270.927 163.757 271.674 168.374 272.771C173.934 274.093 174.021 274.193 174.542 279.868C174.833 283.034 175.321 286.44 175.628 287.438C176.038 288.775 175.175 289.229 172.341 289.168C168.074 289.075 165.399 291.504 165.337 295.529C165.315 296.986 164.72 298.514 164.015 298.925C163.311 299.336 162.734 300.664 162.734 301.877C162.734 303.089 160.186 306.701 157.071 309.904C153.956 313.106 151.111 316.843 150.747 318.209C148.355 327.201 144.808 334.02 142.336 334.379C140.679 334.62 139.677 335.666 139.677 337.156C139.677 338.546 138.072 340.408 135.842 341.606C133.733 342.739 132.004 344.385 132 345.264C131.995 346.143 131.127 347.678 130.07 348.676C127.1 351.479 127.753 353.881 132.632 358.1C138.246 362.954 138.271 364.513 132.751 365.491C130.351 365.916 126.336 368.037 123.83 370.204L119.273 374.144L116.666 371.524Z" fill="#94ADD6"/>
<path id="Swietokrzyskie" d="M309.374 366.32C305.854 363.934 303.639 358.487 303.639 352.216C303.639 343.906 302.096 342.948 290.062 343.789C280.544 344.455 276.153 343.131 278.991 340.452C281.912 337.695 280.841 332.599 276.64 329.262C272.914 326.303 272.779 325.899 274.177 321.9C274.991 319.572 276.096 317.668 276.633 317.668C277.912 317.668 280.582 312.089 280.582 309.417C280.582 307.707 281.515 307.41 285.706 307.787L290.83 308.248V303.414C290.83 300.256 290.17 298.341 288.93 297.891C287.849 297.5 287.356 296.402 287.786 295.343C288.323 294.021 290.351 293.484 294.809 293.484C300.15 293.484 301.077 293.138 301.077 291.147C301.077 289.862 302.23 288.465 303.639 288.042C305.048 287.62 306.201 286.29 306.201 285.086C306.201 279.685 313.023 279.186 314.431 284.484C314.888 286.204 316.455 287.697 318.248 288.122C319.921 288.518 322.567 290.229 324.128 291.924C326.712 294.728 327.599 294.943 334.017 294.318C340.095 293.726 341.151 293.932 341.672 295.814C342.018 297.064 344.358 298.586 347.144 299.374C349.821 300.131 352.727 301.564 353.601 302.558C355.653 304.893 361.79 304.889 363.844 302.553C364.721 301.555 367.258 300.739 369.482 300.739C373.464 300.739 373.571 300.894 376.6 311.09C379.629 321.282 379.64 321.501 377.304 325.299C376 327.42 374.163 329.593 373.222 330.127C372.281 330.662 370.391 333.173 369.021 335.707C367.528 338.47 364.028 341.831 360.28 344.102C353.845 348 347.191 354.216 347.191 356.329C347.191 356.988 345.606 357.858 343.669 358.264C335.692 359.936 321.99 363.947 318.813 365.54C315.098 367.404 311.42 367.708 309.374 366.32Z" fill="#94ADD6"/>
<path id="Lubelskie" d="M424.049 355.758C421.583 354.862 417.231 354.087 414.377 354.036C405.139 353.873 403.206 348.768 410.907 344.875C413.539 343.545 415.895 341.456 416.143 340.233C416.827 336.862 411.458 332.185 406.853 332.14C400.669 332.08 398.43 329.724 398.43 323.279V317.668H393.381C390.605 317.668 387.977 318.212 387.541 318.877C387.106 319.542 385.714 320.086 384.448 320.086C380.906 320.086 377.364 306.249 377.796 294.1C377.986 288.785 378.749 284.082 379.494 283.648C380.289 283.184 380.484 281.433 379.966 279.404C379.482 277.504 378.525 272.957 377.841 269.299C376.964 264.614 375.659 261.921 373.423 260.185C369.383 257.049 369.365 254.789 373.378 254.789C377.898 254.789 380.496 250.524 380.496 243.104C380.496 239.633 381.073 236.457 381.777 236.046C383.613 234.975 383.361 228.5 381.457 227.795C380.576 227.47 381.741 226.81 384.045 226.329C386.35 225.849 388.545 224.982 388.925 224.402C389.304 223.823 393.039 223.349 397.224 223.349C401.444 223.349 404.834 222.811 404.834 222.14C404.834 221.475 407.179 220.931 410.044 220.931C414.672 220.931 415.164 220.66 414.441 218.512C413.874 216.824 414.211 216.094 415.56 216.094C416.623 216.094 417.849 216.638 418.284 217.303C419.402 219.01 424.269 218.736 426.95 216.816C428.194 215.925 430.542 212.813 432.168 209.901C435.502 203.932 439.895 202.485 444.813 205.737C446.388 206.778 448.611 207.63 449.753 207.63C450.896 207.63 453.506 208.989 455.553 210.651C457.6 212.313 459.789 213.673 460.419 213.674C461.052 213.675 461.252 217.942 460.869 223.23C460.428 229.295 460.678 233.259 461.552 234.084C462.534 235.011 462.313 236.027 460.782 237.624C459.26 239.211 458.634 242.042 458.634 247.335C458.634 253.796 459.067 255.16 461.837 257.433C464.61 259.71 465.039 261.068 465.039 267.576C465.039 274.232 465.472 275.527 468.828 278.918C472.887 283.021 480.41 295.331 480.41 297.871C480.41 298.717 481.197 299.845 482.158 300.377C483.12 300.909 484.873 303.129 486.054 305.31C487.989 308.883 488.006 309.461 486.228 311.14C483.498 313.717 483.742 315.64 487.456 320.806C491.098 325.873 491.347 328.392 488.869 335.114C486.997 340.189 483.877 343.062 480.236 343.062C478.242 343.062 470.161 350.178 465.883 355.7C464.454 357.545 463.874 357.395 459.377 354.021C455.554 351.153 453.164 350.317 448.791 350.317C443.859 350.317 442.867 350.775 440.962 353.937C439.09 357.042 438.051 357.545 433.656 357.473C430.838 357.426 426.514 356.655 424.049 355.758Z" fill="#94ADD6"/>
<path id="Lodzkie" d="M270.104 315.35C269.074 313.793 267.097 312.831 264.927 312.831C262.279 312.831 261.225 312.11 260.636 309.897C259.275 304.778 255.389 302.553 247.808 302.553C242.121 302.553 240.573 302.08 238.904 299.832C237.199 297.535 235.711 297.111 229.347 297.111C225.201 297.111 221.435 297.682 220.979 298.38C220.475 299.149 218.954 298.434 217.121 296.567C215.178 294.587 212.724 293.484 210.266 293.484C208.161 293.484 206.082 292.94 205.646 292.275C205.211 291.61 203.447 291.065 201.728 291.065C200.008 291.065 198.601 290.604 198.601 290.041C198.601 289.478 197.448 287.762 196.039 286.228C192.951 282.867 192.706 277.455 195.542 275.233C196.677 274.344 199.483 273.768 201.775 273.955C206.873 274.369 207.47 272.857 207.678 259.021C207.896 244.486 208.435 243.373 215.462 242.939C223.615 242.436 227.969 238.215 225.837 232.883C223.783 227.746 225.64 223.631 230.238 223.133C233.21 222.812 233.894 222.097 234.216 218.98C234.485 216.365 235.562 214.802 237.738 213.866C239.712 213.018 240.88 211.501 240.892 209.772C240.919 205.965 242.585 203.846 246.841 202.203C250.077 200.954 251.047 201.187 255.603 204.303C260.27 207.495 261.412 207.75 268.413 207.164C272.64 206.811 278.045 206.363 280.423 206.169C285.04 205.792 286.274 206.928 287.569 212.747C288.021 214.778 289.778 216.769 292.129 217.917C295.564 219.594 295.953 220.372 295.953 225.557C295.953 228.732 296.645 231.983 297.49 232.781C298.384 233.624 302.666 234.232 307.714 234.232C316.15 234.232 316.422 234.328 317.164 237.558C317.585 239.387 318.555 242.102 319.32 243.592C321.392 247.627 317.345 251.539 312.203 250.473C306.132 249.215 303.756 255.953 308.763 260.23C310.172 261.434 311.325 263.586 311.325 265.013C311.325 266.439 311.959 268.205 312.735 268.938C313.761 269.906 313.412 270.488 311.454 271.075C309.974 271.518 308.75 272.524 308.734 273.311C308.719 274.097 307.579 276.101 306.201 277.764C304.823 279.427 303.683 281.703 303.668 282.822C303.652 283.941 302.486 285.202 301.077 285.624C299.668 286.046 298.515 287.443 298.515 288.728C298.515 290.72 297.588 291.065 292.248 291.065C287.714 291.065 285.765 291.595 285.202 292.978C283.848 296.311 284.358 299.582 286.346 300.302C288.803 301.192 288.866 305.576 286.422 305.576C285.407 305.576 284.22 305.032 283.784 304.367C282.063 301.737 279.337 303.378 278.074 307.804C277.345 310.36 275.629 313.67 274.26 315.16L271.77 317.869L270.104 315.35Z" fill="#94ADD6"/>
<path id="Mazowieckie" d="M356.163 300.14C355.289 299.146 352.383 297.712 349.706 296.955C346.844 296.146 344.582 294.652 344.215 293.328C343.388 290.342 339.74 289.136 336.792 290.875C333.097 293.052 329.397 292.539 326.315 289.42C324.763 287.849 322.198 286.181 320.615 285.711C319.031 285.242 317.382 283.529 316.95 281.905C316.491 280.176 314.932 278.66 313.19 278.247C309.76 277.435 310.243 274.624 314.005 273.496C316.611 272.716 317.435 267.599 315.168 266.276C314.463 265.865 313.887 264.285 313.887 262.765C313.887 261.245 312.747 259.027 311.355 257.838C308.085 255.044 309.134 253.58 314.404 253.58C316.855 253.58 319.499 252.656 320.733 251.368C322.977 249.028 323.634 242.086 321.718 240.968C321.093 240.603 320.202 238.395 319.738 236.059L318.894 231.814H310.242C305.22 231.814 300.945 231.205 300.052 230.363C299.207 229.565 298.515 226.33 298.515 223.173C298.515 218.118 298.1 217.247 295.022 215.855C292.996 214.938 291.051 212.752 290.389 210.65C288.223 203.762 287.72 203.383 281.072 203.626C277.632 203.752 272.368 204.217 269.375 204.66C264.64 205.36 263.099 204.96 257.526 201.584C250.641 197.413 249.622 195.17 253.682 193.119C256.397 191.747 257.12 187.174 254.946 185.122C253.209 183.483 255.918 176.101 259.025 174.005C261.53 172.315 262.255 165.967 260.087 164.702C259.382 164.291 258.806 162.627 258.806 161.003C258.806 158.893 259.511 158.052 261.279 158.052C262.852 158.052 263.9 157.08 264.161 155.381C264.419 153.697 265.754 152.443 267.772 151.989C270.653 151.342 270.975 150.669 270.975 145.299C270.975 139.367 271.01 139.317 276.386 137.553C280.784 136.11 282.599 136.051 286.084 137.241C288.442 138.046 292.924 138.69 296.044 138.673C301.398 138.644 301.85 138.371 304.065 133.836C306.312 129.235 306.667 129.031 312.407 129.031C317.396 129.031 318.615 128.574 319.667 126.31C320.521 124.473 322.24 123.469 324.961 123.22C327.177 123.016 330.004 121.792 331.244 120.499C332.799 118.877 335.176 118.148 338.907 118.148C341.992 118.148 344.958 117.417 345.811 116.447C346.633 115.511 350.092 114.559 353.496 114.331L359.685 113.915L360.339 124.771C360.861 133.42 361.451 135.879 363.242 136.864C367.767 139.351 372.81 144.731 372.81 147.071C372.81 153.185 380.521 160.47 386.992 160.47C388.74 160.47 390.836 161.54 391.728 162.889C392.831 164.557 394.715 165.307 397.8 165.307C401.613 165.307 402.272 165.717 402.272 168.088C402.272 169.618 402.947 171.506 403.771 172.284C404.915 173.364 404.881 174.81 403.627 178.399C401.35 184.91 402.552 187.312 410.615 192.366C416.483 196.044 418.713 196.747 424.513 196.747C429.09 196.747 431.959 197.358 433.015 198.56C433.892 199.558 435.836 200.439 437.335 200.517C439.373 200.624 439.138 200.853 436.404 201.424C433.788 201.971 431.898 203.689 429.765 207.459C426.483 213.259 422.15 216.877 420.855 214.898C420.415 214.226 418.017 213.676 415.527 213.676C412.076 213.676 410.84 214.251 410.329 216.094C409.855 217.807 408.582 218.512 405.966 218.512C403.934 218.512 402.272 219.057 402.272 219.722C402.272 220.392 398.882 220.931 394.662 220.931C390.477 220.931 386.742 221.405 386.363 221.984C385.984 222.563 383.932 223.366 381.804 223.768C377.693 224.544 376.595 227.648 379.471 230.363C380.667 231.491 380.667 232.136 379.471 233.265C378.626 234.063 377.934 237.479 377.934 240.856C377.934 248.101 375.295 252.37 370.816 252.37C366.154 252.37 366.371 259.149 371.149 262.746C373.891 264.81 374.649 266.456 374.79 270.651C374.888 273.566 375.125 276.494 375.317 277.159C375.87 279.069 375.288 293.862 374.569 296.205C374.079 297.798 372.554 298.321 368.398 298.321C365.053 298.321 362.248 299.036 361.282 300.134C359.275 302.417 358.166 302.418 356.163 300.14Z" fill="#94ADD6"/>
<path id="Wielkopolskie" d="M179.575 288.949C178.654 285.79 177.602 280.615 177.238 277.45C176.583 271.758 176.51 271.678 170.649 270.285C167.389 269.51 165.427 268.654 166.29 268.382C168.939 267.549 168.064 261.439 164.893 258.627C161.14 255.299 159.183 255.318 155.348 258.719C150.301 263.195 141.794 262.504 132.841 256.893C127.949 253.826 125.587 251.539 125.587 249.867C125.587 248.504 122.75 244.557 119.282 241.096C115.815 237.635 112.568 233.264 112.068 231.382C111.203 228.127 110.892 227.997 105.716 228.73C100.727 229.436 100.209 229.258 99.5015 226.598C99.077 225.001 96.1261 221.429 92.9439 218.66C86.612 213.151 86.3204 211.971 88.6198 201.162C89.9151 195.073 89.8221 194.021 87.8026 191.914C85.9152 189.945 85.8069 189.214 87.1726 187.661C88.5041 186.147 88.5141 184.803 87.2246 180.685C86.3462 177.88 85.133 174.68 84.5287 173.572C83.8119 172.259 84.0313 171.088 85.16 170.204C86.1116 169.458 87.2704 166.935 87.7352 164.596C88.2001 162.257 89.4346 160.034 90.4785 159.655C93.1604 158.684 96.1248 152.795 96.1248 148.438C96.1248 145.141 96.5349 144.75 99.9931 144.75C104.946 144.75 113.802 139.496 115.357 135.636C116.017 133.998 117.291 132.658 118.19 132.657C120.795 132.655 129.43 123.554 129.43 120.809C129.43 119.431 128.356 117.989 127.037 117.594C125.72 117.199 123.614 115.802 122.355 114.489C120.136 112.175 120.16 112.101 123.146 112.097C128.512 112.089 134.332 107.851 134.787 103.621C135.187 99.9084 135.238 99.8815 137.756 102.075C144.825 108.235 148.736 109.978 153.778 109.217C159.323 108.38 161.916 110.326 158.447 112.721C155.108 115.025 155.733 121.351 159.532 123.7C163.555 126.189 163.621 128.701 159.707 130.384C157.063 131.522 156.583 132.774 155.918 140.271C155.094 149.546 155.697 151.01 161.517 153.851C166.337 156.203 167.089 159.875 163.24 162.256C158.756 165.03 158.857 172.205 163.395 173.28C165.168 173.7 167.762 173.761 169.16 173.416C171.181 172.917 171.701 173.392 171.701 175.737C171.701 179.477 174.94 180.709 177.97 178.12C180.569 175.9 182.181 176.948 183.79 181.907C184.377 183.714 186.276 185.01 189.562 185.845C192.256 186.53 195.174 187.903 196.047 188.895C198.187 191.329 206.287 191.323 206.287 188.887C206.287 186.311 208.541 186.641 210.427 189.491C211.404 190.969 213.414 191.91 215.593 191.91C218.111 191.91 219.484 192.71 220.262 194.63C222.399 199.906 226.197 201.981 232.087 201.092C235.596 200.562 237.771 200.76 238.363 201.663C239.577 203.518 236.921 210.277 234.231 212.177C233.044 213.016 231.891 215.19 231.669 217.008C231.352 219.607 230.453 220.446 227.469 220.929C222.763 221.691 220.384 227.613 222.579 233.103C223.794 236.141 223.594 236.76 220.85 238.457C218.772 239.742 216.357 240.13 213.536 239.63C207.041 238.48 205.898 240.774 205.076 256.611C204.685 264.147 203.989 270.667 203.529 271.099C203.069 271.532 201.464 271.168 199.962 270.29C197.499 268.851 196.875 269.079 193.584 272.625C191.579 274.786 189.293 276.555 188.505 276.555C186.564 276.555 186.698 278.447 188.778 280.41C189.716 281.296 190.88 283.511 191.364 285.334C191.849 287.156 192.81 288.647 193.502 288.647C194.193 288.647 194.758 289.191 194.758 289.856C194.758 290.521 194.141 291.065 193.386 291.065C192.631 291.065 191.149 291.882 190.092 292.879C189.035 293.877 186.613 294.693 184.71 294.693C181.671 294.693 181.046 293.994 179.575 288.949Z" fill="#94ADD6"/>
<path id="Lubuskie" d="M51.8576 266.768C51.381 266.04 48.7551 265.646 46.0177 265.893C42.9226 266.171 41.0438 265.83 41.0438 264.988C41.0438 264.245 38.8065 263.003 36.072 262.23C29.4395 260.354 27.8204 258.392 29.4877 254.253C31.7938 248.527 31.0466 244.585 26.9533 240.883C24.8398 238.971 23.1265 236.829 23.1461 236.122C23.1657 235.415 24.9348 232.66 27.0775 230L30.9733 225.163L30.0919 212.466C29.5086 204.065 28.4068 198.181 26.8349 195.074C24.5054 190.47 24.5084 190.314 26.9873 187.028C29.8298 183.26 30.3337 176.237 27.9248 173.963C26.6581 172.767 26.7233 172.229 28.245 171.321C29.2959 170.694 31.1226 170.173 32.3044 170.162C35.1121 170.138 39.7629 164.501 39.7629 161.122C39.7629 159.665 41.2018 157.197 42.9606 155.637C45.8595 153.067 46.4647 152.956 49.4366 154.458C52.3766 155.943 53.3104 155.808 58.4867 153.153C61.6612 151.524 65.1771 149.24 66.2997 148.076C67.4223 146.912 69.3338 145.96 70.5474 145.96C71.761 145.96 73.4715 145.143 74.3486 144.146C75.2256 143.148 77.5299 142.332 79.4691 142.332C81.4084 142.332 84.7963 141.992 86.998 141.576C90.3674 140.94 91.001 140.27 91.001 137.344C91.001 135.11 91.6661 133.867 92.862 133.867C94.3355 133.867 94.588 135.19 94.0745 140.216C92.8533 152.169 92.1953 154.313 89.0261 156.666C87.2879 157.957 85.5106 160.689 85.0765 162.737C84.6426 164.786 83.4923 167.085 82.5204 167.846C80.3594 169.539 80.2142 173.988 82.2568 175.916C83.1277 176.738 83.7075 180.626 83.6347 185.155C83.5539 190.189 84.097 193.435 85.1594 194.268C86.3572 195.206 86.5215 196.966 85.7587 200.688C85.1807 203.508 84.6827 208.117 84.652 210.93C84.6024 215.474 85.241 216.605 90.382 221.079C93.5642 223.848 96.5219 227.445 96.9546 229.073C97.6613 231.731 98.305 231.99 103.271 231.617C109.951 231.115 111.006 233.046 108 240.269C105.886 245.349 103.81 245.654 103.81 240.883C103.81 239.299 103.213 237.654 102.483 237.228C99.9675 235.761 90.5857 238.142 87.5348 241.022C85.8545 242.608 84.0032 243.906 83.4207 243.906C82.8383 243.906 81.9837 246.137 81.5217 248.865C80.9329 252.341 79.9428 254.006 78.2104 254.434C76.8285 254.775 75.1064 256.853 74.304 259.149C72.5794 264.082 69.0065 264.603 66.8959 260.23C66.0934 258.568 64.6751 257.207 63.7441 257.207C61.4108 257.207 58.9771 259.704 58.9771 262.099C58.9771 263.972 55.218 268.09 53.5078 268.09C53.0765 268.09 52.3339 267.495 51.8576 266.768Z" fill="#94ADD6"/>
<path id="KujawskoPomorskie" d="M240.872 199.011C240.872 198.096 238.67 197.848 234.172 198.256C227.074 198.9 225.52 198.064 222.927 192.212C222.058 190.251 220.652 189.491 217.892 189.491C215.374 189.491 213.593 188.663 212.691 187.073C210.984 184.061 202.444 183.557 202.444 186.468C202.444 188.986 199.434 188.737 196.813 186.002C195.611 184.749 193.053 183.426 191.129 183.062C188.726 182.609 186.948 181.051 185.451 178.087C183.157 173.547 178.911 172.286 175.8 175.223C174.604 176.351 174.263 175.913 174.263 173.251C174.263 170.071 173.966 169.87 170.1 170.429C162.196 171.57 160.163 168.486 166.118 164.391C171.035 161.01 169.642 154.717 163.083 150.684C158.479 147.854 158.36 147.593 158.727 141.218C159.029 135.973 159.724 134.202 162.2 132.363C166.403 129.242 166.352 123.916 162.094 121.282C158.5 119.059 157.919 116.34 160.813 115.292C161.87 114.909 162.734 113.865 162.734 112.971C162.734 110.893 167.476 101.584 168.982 100.705C169.611 100.339 171.948 100.638 174.174 101.371C177.557 102.484 178.634 102.351 180.726 100.564C182.103 99.3878 183.23 97.7517 183.23 96.9284C183.23 95.241 186.052 93.9634 189.779 93.9634C191.153 93.9634 192.608 93.1471 193.014 92.1495C194.094 89.4924 201.478 89.8071 203.318 92.5887C204.438 94.282 207.063 95.0514 213.882 95.6857C221.625 96.406 223.471 97.0447 226.47 100.04C229.343 102.911 231.503 103.724 238.31 104.501L246.637 105.451L247.036 110.018C247.465 114.92 250.464 117.359 263.293 123.243C268.333 125.554 269.053 126.368 269.053 129.747C269.053 132.293 269.817 133.9 271.295 134.464C273.309 135.232 273.256 135.421 270.775 136.326C267.424 137.548 265.548 144.034 267.803 146.599C269.363 148.374 269.162 148.527 262.969 150.27C262.088 150.518 261.368 151.826 261.368 153.177C261.368 154.77 260.526 155.633 258.973 155.633C255.478 155.633 254.222 163.74 257.232 166.878C259.312 169.048 259.277 169.278 256.553 171.36C254.974 172.567 253.682 174.148 253.682 174.872C253.682 175.597 253.105 176.19 252.401 176.19C250.646 176.19 250.775 186.264 252.552 187.941C253.607 188.937 253.27 189.713 251.271 190.892C249.779 191.772 248.558 193.702 248.558 195.181C248.558 196.66 247.443 198.434 246.08 199.123C242.852 200.754 240.872 200.711 240.872 199.011Z" fill="#94ADD6"/>
<path id="Podlaskie" d="M435.577 196.142C434.52 194.94 431.652 194.328 427.074 194.328C421.285 194.328 419.043 193.624 413.231 189.981C409.417 187.591 405.969 184.831 405.57 183.848C404.735 181.795 406.884 177.399 408.722 177.399C410.71 177.399 410.099 174.615 407.396 171.353C406.019 169.69 404.878 167.106 404.863 165.609C404.834 162.86 404.22 162.552 398.43 162.379C396.118 162.311 395.332 161.695 395.604 160.168C395.906 158.467 395.042 158.052 391.199 158.052C383.163 158.052 375.372 151.456 375.372 144.653C375.372 142.313 370.329 136.933 365.804 134.445C364.009 133.458 363.421 130.987 362.89 122.184L362.224 111.159L367.51 110.316C370.418 109.852 373.081 109.039 373.428 108.508C373.776 107.978 376.733 107.165 380.001 106.703C386.091 105.841 387.474 104.852 395.839 95.3798C398.289 92.6056 400.919 90.3357 401.684 90.3357C404.112 90.3357 410.342 83.2824 412.084 78.5619C414.453 72.1394 414.223 70.3184 410.775 68.1855C408.551 66.8096 407.573 64.8412 407.085 60.756C406.633 56.9702 405.468 54.4173 403.429 52.7484L400.437 50.2984L406.327 45.2259C409.567 42.436 412.556 39.201 412.969 38.0372C414.039 35.0248 417.978 35.4201 422.006 38.9441C423.907 40.6068 426.032 41.9671 426.73 41.9671C427.428 41.9671 429.236 43.0554 430.748 44.3855C432.261 45.7157 434.453 46.804 435.62 46.804C440.579 46.804 446.044 58.0554 444.922 65.9544C444.474 69.1035 444.712 70.9883 445.557 70.9883C447.822 70.9883 449.807 78.806 448.901 84.1583C448.272 87.8728 448.567 89.7335 450.031 91.2735C451.121 92.4204 452.429 95.4756 452.938 98.0628C453.447 100.65 455.218 105.003 456.874 107.736C458.53 110.47 459.891 113.815 459.9 115.171C459.908 116.527 461.087 119.792 462.518 122.427C465.6 128.097 469.613 142.509 470.872 152.427C472.02 161.461 469.917 167.968 465.231 169.883C458.717 172.545 453.217 176.047 451.182 178.829C450.055 180.37 448.388 182.35 447.478 183.229C446.569 184.108 445.825 185.877 445.825 187.159C445.825 188.442 445.355 189.491 444.781 189.491C444.207 189.491 442.775 191.396 441.599 193.724C439.252 198.371 437.984 198.88 435.577 196.142Z" fill="#94ADD6"/>
<path id="ZachodnioPomorskie" d="M24.3914 169.425C24.3914 168.763 20.3754 164.437 15.4668 159.812C10.5583 155.186 6.5233 150.641 6.50015 149.713C6.47702 148.784 9.05202 145.406 12.2224 142.207C15.3927 139.007 17.9867 135.788 17.9867 135.052C17.9867 134.317 19.5205 130.758 21.3952 127.144C24.4179 121.317 24.6425 120.059 23.3794 116.035C22.596 113.539 21.5913 109.048 21.1468 106.056C20.7022 103.063 19.9247 97.8933 19.4191 94.568C18.9134 91.2426 17.8124 87.3415 16.9725 85.8989C16.0277 84.2761 15.7521 81.1636 16.2497 77.7367C17.0069 72.5212 17.287 72.1944 21.0429 72.1444C23.2369 72.1152 27.3376 71.2599 30.1557 70.2437C32.9738 69.2274 37.8735 67.6109 41.0438 66.6513C44.2142 65.6917 48.2492 63.9203 50.0105 62.7149C53.6387 60.2318 60.4792 58.2967 74.1805 55.8776C80.0432 54.8424 84.6852 53.2659 86.4321 51.7167C88.4249 49.9494 90.9484 49.2224 95.0902 49.2224C105.633 49.2224 114.706 43.6572 120.328 33.7413C121.883 30.9982 127.971 27.4565 131.132 27.4565C133.605 27.4565 135.551 32.6793 136.162 40.9622C136.622 47.193 136.397 47.9339 133.689 49.0985C129.993 50.6883 129.713 55.5362 133.131 58.7626C135.034 60.5595 135.412 62.2128 134.9 66.503C134.342 71.1735 134.639 72.1558 136.963 73.3298C140.013 74.8708 140.778 80.662 137.931 80.662C136.699 80.662 135.982 83.0522 135.494 88.7848C135.114 93.2524 134.171 97.1068 133.398 97.3501C132.624 97.5934 131.991 99.3401 131.991 101.232C131.991 105.671 126.74 109.683 120.931 109.683C114.785 109.683 115.126 113.483 121.673 117.96L126.726 121.415L121.939 125.828C119.306 128.254 116.442 130.24 115.574 130.24C114.705 130.24 113.456 131.578 112.797 133.213C111.344 136.821 102.315 142.703 99.1222 142.123C97.2567 141.784 96.892 140.726 97.2094 136.576L97.6016 131.449H93.0203C88.8282 131.449 88.439 131.744 88.439 134.926C88.439 137.852 87.8055 138.522 84.4361 139.158C82.2344 139.573 78.8465 139.914 76.9072 139.914C74.968 139.914 72.6637 140.73 71.7867 141.727C70.9096 142.725 69.1424 143.541 67.8596 143.541C66.5768 143.541 64.7642 144.493 63.8317 145.657C60.6817 149.589 54.5154 151.779 48.422 151.131C43.1912 150.574 42.4722 150.832 39.9534 154.171C38.4396 156.178 37.2009 158.615 37.2009 159.587C37.2009 162.284 32.1715 167.725 29.6785 167.725C28.4614 167.725 26.774 168.378 25.9286 169.177C25.0831 169.975 24.3914 170.086 24.3914 169.425Z" fill="#94ADD6"/>
<path id="WarminskoMazurskie" d="M288.312 134.943C286.575 134.288 283.116 133.914 280.626 134.112C275.162 134.547 271.618 131.718 271.609 126.914C271.604 123.961 270.386 123.002 260.721 118.342C249.846 113.099 249.839 113.093 249.839 108.328C249.839 103.632 249.596 103.367 243.854 101.781C241.18 101.043 243.571 96.6218 247.468 95.098C250.04 94.0924 251.493 92.5061 251.989 90.1621C252.457 87.9554 253.524 86.7081 254.944 86.7081C258.08 86.7081 266.491 78.892 266.491 75.9777C266.491 73.162 265.012 72.1011 259.641 71.064C256.79 70.5137 255.514 69.4174 254.803 66.9097C254.273 65.036 252.947 62.8745 251.859 62.1064C249.813 60.6637 250.359 55.2685 252.55 55.2685C253.173 55.2685 253.682 53.0919 253.682 50.4316C253.682 46.1 254.011 45.5948 256.832 45.5948C261.618 45.5948 268.986 41.6957 269.022 39.1432C269.05 37.1638 269.919 36.9901 277.059 37.5366C281.463 37.8735 288.524 38.6815 292.751 39.332C317.71 43.173 324.097 43.715 343.349 43.6255C354.973 43.5714 369.96 42.9016 376.653 42.1371C383.346 41.3725 393.146 40.4473 398.43 40.0811L408.037 39.4152L403.233 43.4119C397.58 48.1152 397.139 51.5214 401.632 55.7632C403.986 57.9857 404.834 60.0742 404.834 63.6502C404.834 67.4338 405.509 68.9314 407.872 70.3931C410.675 72.1267 410.792 72.5961 409.386 76.4577C407.642 81.2445 403.436 85.8319 397.746 89.1515C395.585 90.4124 391.948 93.9007 389.664 96.9032C386.466 101.107 384.271 102.666 380.121 103.684C377.157 104.41 370.697 106.395 365.765 108.095C360.834 109.794 354.086 111.442 350.772 111.756C347.457 112.071 344.072 113.093 343.249 114.028C342.396 114.999 339.43 115.729 336.345 115.729C332.563 115.729 330.239 116.457 328.618 118.148C327.342 119.478 325.198 120.566 323.852 120.566C320.301 120.566 316.449 122.791 316.449 124.841C316.449 126.125 314.917 126.612 310.883 126.612C304.995 126.612 302.126 128.534 300.502 133.565C299.823 135.668 298.698 136.268 295.547 136.209C293.305 136.167 290.049 135.597 288.312 134.943Z" fill="#94ADD6"/>
<path id="Pomorskie" d="M146.722 104.532C138.203 98.6236 137.553 97.5278 138.113 90.0334C138.483 85.0949 139.156 83.0804 140.436 83.0804C141.717 83.0804 142.239 81.5166 142.239 77.6815C142.239 73.5405 141.649 71.9844 139.706 71.0027C137.566 69.9216 137.292 68.9 137.942 64.4248C138.586 59.985 138.27 58.7708 135.992 56.9289C132.476 54.0875 132.565 53.1025 136.487 51.4155C139.64 50.0595 139.686 49.8441 138.899 40.2562C138.458 34.879 137.325 29.3113 136.382 27.8833C134.798 25.4859 134.982 25.1725 138.773 23.7923C148.481 20.2585 152.423 18.2993 152.454 16.9926C152.472 16.2255 155.225 15.3022 158.571 14.9409C170.705 13.6309 161.812 13.3092 166.535 10.3584C171.241 7.41859 190.015 5.87926 205.743 6.7356C220.729 7.55154 232.661 21.9485 231.944 24.0824C231.578 25.1708 232.007 29.8305 228.623 27.8182C225.239 25.8058 213.938 12.2088 211.827 13.665C207.99 16.3127 218.397 25.2917 218.397 27.8129C218.397 31.4476 218.764 38.6083 222.065 41.4334C225.994 44.7962 229.226 42.4859 238.018 42.1115C250.903 41.5628 254.069 44.8182 249.206 53.6187C246.57 58.3913 246.791 62.8645 249.75 64.6088C251.11 65.4105 252.406 67.5606 252.632 69.3868C252.976 72.1748 253.851 72.8647 258.089 73.6905C260.866 74.2314 263.404 74.9257 263.73 75.2335C264.949 76.3842 255.496 84.2644 252.881 84.2767C250.917 84.286 249.956 85.2509 249.427 87.7437C248.926 90.1115 247.475 91.6749 244.815 92.715C241.915 93.8492 240.73 95.2642 240.123 98.3198C239.39 102.005 238.978 102.334 235.928 101.657C234.068 101.245 231.025 99.5732 229.167 97.9429C225.675 94.8804 218.836 92.8332 211.929 92.783C209.622 92.7662 206.995 91.7429 205.646 90.3357C202.728 87.292 191.623 86.8502 190.452 89.7311C190.047 90.7287 188.4 91.5533 186.792 91.5634C183.332 91.5854 181.811 92.5115 179.872 95.7772C178.743 97.68 177.104 98.1956 172.187 98.1956C166.479 98.1956 165.772 98.5172 164.04 101.902C162.542 104.832 161.333 105.606 158.276 105.596C156.149 105.588 153.543 105.945 152.487 106.389C151.381 106.854 148.934 106.065 146.722 104.532Z" fill="#94ADD6"/>
</g>
</svg>
